<svg width="1124" height="863" viewBox="0 0 1124 863" fill="none" xmlns="http://www.w3.org/2000/svg">
<path d="M318.5 1.70004C314.1 2.50004 309 3.80004 307.2 4.60004C305.4 5.40004 303.2 6.00004 302.4 6.00004C299.2 6.00004 281.6 15.4 274.2 21C262.9 29.5 254.7 38.6 245 53C244.2 54.2 242.1 57.1 240.4 59.4C238.8 61.6 236 65.5 234.4 68C230.9 73.2 224.7 82.2 209 104.5C205.9 108.9 201.6 115 199.5 118C197.4 121 193.7 126.2 191.5 129.5C187 135.9 177.1 150 170.8 159C168.6 162 164.9 167.4 162.4 171C160 174.6 154.3 182.8 149.7 189.2C129 218.7 109 247.3 101.6 258C99.9 260.4 98.1 262.9 97.7 263.5C96.9 264.4 89.2 275.6 79.5 289.5C77.3 292.8 73.6 298 71.5 301C66.4 308.2 56.8 321.8 51.1 330C45.6 338 41.4 344 33.6 355C30.4 359.7 25.6 366.4 23.1 370C13.1 384.3 9.10005 390.8 6.50005 397.5C-2.09995 419.1 -2.09995 443 6.50005 464.5C9.10005 471.1 14.7 480.3 23.8 493C28.4 499.5 38.5 513.8 44.9 523C47.3 526.6 51 531.7 52.9 534.5C54.8 537.2 58.4 542.4 60.9 546C67 554.9 69.3 558.2 70.5 559.6C71.1 560.3 73.5 563.8 76 567.5C78.5 571.1 81.9 576 83.6 578.3C85.3 580.6 89.9 587.2 93.9 593C97.8 598.8 104 607.5 107.5 612.5C111 617.4 116.8 625.8 120.4 631C124 636.2 130.3 645.2 134.4 651C138.5 656.8 145.3 666.4 149.5 672.5C160.2 687.9 167 697.6 171.5 704C178.8 714.3 187.3 726.5 191.5 732.5C193.7 735.8 197.4 741 199.5 744C204.6 751.2 214.2 764.8 219.9 773C222.3 776.6 226 781.7 227.9 784.5C229.8 787.2 233.4 792.4 235.8 796C238.3 799.6 241 803.5 241.9 804.6C242.8 805.8 244.2 807.8 245 809C259 829.8 272.9 842.5 291.6 851.5C296.7 854 301.6 856 302.4 856C303.2 856 305.4 856.6 307.2 857.4C309 858.2 314.6 859.5 319.5 860.4C327.6 861.9 363.7 862 692.3 862C1086.4 862 1060.9 862.3 1075.6 857C1098.6 848.6 1116.1 828.6 1122.1 803.7C1123.9 796.1 1124 784.9 1124 431C1124 77.1 1123.9 65.9 1122.1 58.3C1116.1 33.4 1098.6 13.4 1075.6 5.00004C1060.8 -0.299964 1086.6 3.59833e-05 691.3 0.100036C373.3 0.200036 325.5 0.400036 318.5 1.70004ZM1030.4 97.1C1031.2 101.2 1031.2 760.8 1030.4 764.9L1029.8 768H681.8C366.4 768 333.6 767.9 331.1 766.4C329.7 765.6 326.7 762.3 324.5 759.2C313.6 743.3 288.9 708 282.5 699C277.2 691.6 260.3 667.5 253.9 658.2C246.7 647.9 240.4 638.9 235.5 632C229 622.8 222.1 612.9 218 607C216.1 604.2 212.5 599 210 595.5C207.5 592 204.8 588.2 204 587C203.2 585.8 201.3 583.1 199.9 581.1C195 574.2 190 567 185.7 560.8C181.2 554.2 176.9 548.1 166.9 534C163.6 529.3 159.2 523 157.1 520C155.1 517 151.6 512 149.5 509C145.4 503.1 141.8 498 124.8 473.8C119 465.4 112.6 456.2 110.6 453.5C99.6 437.9 96 432.3 96 430.9C96 430.1 98.7 425.6 101.9 421C105.2 416.3 110.1 409.3 112.7 405.5C120 395 126.9 385.2 131.7 378.5C134 375.2 138 369.6 140.4 366C142.9 362.4 147 356.6 149.5 353C152 349.4 155.6 344.2 157.5 341.5C159.3 338.7 163.5 332.7 166.9 328C175.8 315.5 180.8 308.3 185.7 301.2C190 295 195 287.8 199.9 280.9C201.3 278.9 203.2 276.2 204 275C204.8 273.8 207.5 270 210 266.5C212.5 263 216.1 257.8 218 255C222.1 249.1 229 239.2 235.5 230C240.4 223.1 246.7 214.1 253.9 203.8C259.7 195.4 276.7 171.1 282.5 163C285 159.4 291 150.9 295.8 144C300.6 137.1 305.9 129.5 307.5 127.2C309.2 124.9 313.1 119.2 316.3 114.7C319.5 110.2 323.5 104.4 325.2 101.9C326.9 99.4 329.4 96.6 330.9 95.7C333.3 94.2 362.3 94.1 681.6 94H1029.8L1030.4 97.1Z" fill="white"/>
<path d="M508 226.2C492.8 232.9 487.7 236.7 481.6 246.4C476.8 254 474.8 261.2 474.8 271C474.7 281.4 476.7 288.1 482.6 297C485.5 301.5 505.8 322.5 549.9 366.5C584.6 401.1 613 430.2 613 431C613 431.8 584.6 460.9 549.9 495.5C484.5 560.7 480.3 565.5 476.5 577C474.1 584.3 474.2 597.6 476.6 605C481.2 619.4 490.9 629 507.4 635.5C512.9 637.7 529 637.5 535.7 635.1C547 631.2 551.1 627.5 616 562.6C650.9 527.6 680.2 499 681 499C681.8 499 711.1 527.6 746 562.6C789.3 605.9 811.4 627.3 815.3 629.8C824.5 635.4 830 637 841 637C851.7 636.9 858.2 635.2 865.9 630.2C871.6 626.5 879.8 618.3 880.6 615.5C881 614.4 881.7 612.9 882.3 612.2C887 606.3 888.7 586.1 885.2 576.5C881 564.8 879.9 563.6 813.9 497.5C778.2 461.7 749 431.8 749 431C749 430.2 778.2 400.3 813.9 364.5C879.9 298.4 881 297.2 885.2 285.5C888.7 275.9 887 255.7 882.3 249.8C881.7 249.1 881 247.6 880.6 246.5C879.7 243.6 870.2 234.2 865 231.2C857.2 226.6 851.3 225.1 841 225C830 225 824.5 226.6 815.3 232.2C811.4 234.7 789.3 256.1 746 299.4C711.1 334.4 681.8 363 681 363C680.2 363 650.3 333.8 614.5 298.1C548.3 232 547.1 231 535.5 226.8C529.8 224.8 512.2 224.4 508 226.2Z" fill="white"/>
</svg>
