<svg width="103" height="103" viewBox="0 0 103 103" fill="none" xmlns="http://www.w3.org/2000/svg">
<path d="M97.9248 0.303267C97.6056 0.417269 87.1174 10.7459 74.6227 23.2633L51.8678 45.9954L29.1357 23.2633C4.39722 -1.45238 5.97045 -0.0159397 3.82721 0.394469C2.70998 0.599673 1.34195 1.9677 1.13675 3.08493C0.726342 5.22817 -0.710088 3.65493 24.0056 28.3707L46.7377 51.1255L23.8916 73.9716C-0.892492 98.8013 0.498337 97.2509 0.885945 99.3713C1.09115 100.443 2.55038 101.902 3.622 102.107C5.74245 102.495 4.19202 103.886 28.9989 79.1017L51.8678 56.2556L74.7139 79.1017C99.5664 103.931 97.9932 102.495 100.136 102.085C101.254 101.879 102.622 100.511 102.827 99.3941C103.237 97.2509 104.674 98.8241 79.844 73.9944L56.9979 51.1255L79.844 28.2794C104.605 3.49533 103.237 5.00017 102.85 2.90252C102.462 0.827678 99.954 -0.49475 97.9248 0.303267Z" fill="white"/>
</svg>
