<svg width="182" height="172" viewBox="0 0 182 172" fill="none" xmlns="http://www.w3.org/2000/svg">
<path d="M90.1113 0.93638C71.6625 2.60708 54.7422 9.64536 41.0566 21.3758C27.0867 33.3551 17.3113 49.7067 13.4367 67.5868C12.9746 69.7196 12.548 71.4258 12.4414 71.4258C12.3348 71.3903 11.6949 70.5727 11.0195 69.5774C9.20664 66.9114 8.17578 66.2715 5.6875 66.2715C2.23945 66.2715 0.177734 68.3333 0.177734 71.7458V73.8075L6.39844 83.1208C9.81094 88.2751 13.0457 92.8251 13.5789 93.3227C14.7875 94.318 16.5648 94.709 18.4133 94.3536C19.5508 94.1403 20.9371 92.9317 28.1531 85.7157C37.2176 76.6157 37.3953 76.4024 36.791 73.3098C36.4711 71.568 34.3383 69.4352 32.5965 69.1153C30.1437 68.6532 28.8641 69.1508 26.2336 71.6747C24.7762 73.0965 23.8164 73.8075 23.8164 73.4876C23.8164 72.2434 26.3047 63.2145 27.5488 59.8731C38.5684 30.3692 68.0367 10.854 99.5312 12.1692C136.642 13.7688 166.146 41.4954 170.27 78.7129C171.336 88.3106 170.021 99.6145 166.75 109.461C157.508 137.081 133.052 156.561 103.832 159.547C79.0562 162.106 55.6664 152.366 40.3457 133.1C38.5328 130.86 37.182 129.474 36.4 129.154C32.0988 127.377 27.7266 130.967 28.5797 135.552C29.0418 137.934 36.1512 146.252 42.123 151.406C50.6898 158.729 59.8254 163.919 70.134 167.225C78.1676 169.855 84.175 170.886 92.9551 171.206C112.008 171.881 129.639 166.834 144.925 156.312C158.184 147.212 168.67 134.486 174.855 120.054C183.351 100.254 184.275 79.2817 177.521 59.02C166.786 26.8145 138.242 4.20669 104.33 1.04302C100.669 0.723098 93.275 0.652005 90.1113 0.93638Z" fill="white"/>
<path d="M91.5332 32.4664C90.218 33.0707 89.0449 34.3148 88.5473 35.6301C88.2629 36.3055 88.1562 45.2633 88.1562 63.25C88.1562 86.7465 88.2273 90.0523 88.725 91.2965C89.2227 92.5406 91.3555 94.2469 107.458 106.333L125.587 119.947H127.649C129.959 119.947 131.132 119.307 132.519 117.281C133.514 115.788 133.585 113.3 132.59 111.7C131.808 110.385 132.412 110.883 113.75 96.7352L99.709 86.1066L99.5312 60.8328C99.3535 36.0211 99.3535 35.559 98.607 34.5992C98.216 34.066 97.4695 33.284 96.9719 32.9285C95.7633 32.0398 92.9551 31.791 91.5332 32.4664Z" fill="white"/>
</svg>
